<?xml version="1.0" standalone="no"?>
<!DOCTYPE svg PUBLIC "-//W3C//DTD SVG 20010904//EN"
 "http://www.w3.org/TR/2001/REC-SVG-20010904/DTD/svg10.dtd">
<svg version="1.0" xmlns="http://www.w3.org/2000/svg"
 width="1546.000000pt" height="409.000000pt" viewBox="0 0 1546.000000 409.000000"
 preserveAspectRatio="xMidYMid meet">
<metadata>
Created by potrace 1.16, written by Peter Selinger 2001-2019
</metadata>
<g transform="translate(0.000000,409.000000) scale(0.100000,-0.100000)"
fill="#000000" stroke="none">
<path d="M0 2045 l0 -2045 7730 0 7730 0 -1 1383 c0 760 -4 1438 -9 1507 -5
69 -16 301 -24 515 -8 215 -18 456 -22 538 l-6 147 -7699 0 -7699 0 0 -2045z
m11105 1989 c31 -14 65 -64 65 -94 0 -24 18 1 24 34 12 61 10 61 335 61 163 1
374 5 468 9 205 10 212 8 237 -78 9 -29 23 -57 32 -60 9 -4 150 -1 314 5 198
7 309 7 333 1 20 -6 55 -8 77 -5 34 5 49 15 86 59 26 30 60 58 78 64 32 10
149 14 501 14 221 0 281 -1 390 -5 44 -2 157 0 250 4 158 8 171 8 190 -10 32
-29 54 -83 85 -214 11 -47 33 -128 50 -180 16 -52 30 -105 30 -119 0 -14 15
-72 33 -130 19 -58 44 -148 57 -200 13 -52 29 -115 36 -140 27 -94 157 -617
164 -665 10 -60 68 -282 80 -304 4 -9 11 -38 15 -66 4 -27 11 -54 15 -60 4 -5
16 -50 25 -100 10 -49 26 -115 36 -146 11 -31 24 -83 30 -115 5 -33 28 -131
49 -219 21 -88 43 -191 50 -229 6 -38 17 -81 24 -95 8 -14 16 -46 19 -71 6
-55 31 -174 45 -215 5 -16 15 -57 21 -90 7 -33 27 -125 46 -205 36 -151 55
-322 38 -333 -6 -4 -13 19 -16 56 -6 60 -39 221 -112 537 -20 85 -44 196 -55
245 -128 612 -688 2821 -755 2982 -29 68 -9 66 -698 60 -691 -6 -648 -1 -688
-80 -12 -23 -27 -45 -33 -49 -15 -11 -838 -10 -854 1 -8 4 -16 27 -19 50 -10
73 7 71 -491 68 -433 -2 -442 -2 -462 -23 -12 -11 -27 -38 -35 -60 -11 -33
-18 -40 -44 -42 -25 -3 -31 0 -31 17 0 11 5 23 11 26 7 5 5 13 -6 24 -9 9 -22
25 -29 36 -14 19 -25 19 -443 17 -235 -2 -444 -7 -464 -13 -24 -6 -40 -18 -48
-36 -39 -84 -29 -77 -121 -84 -118 -9 -666 -13 -679 -5 -6 4 -13 23 -17 44 -4
20 -14 45 -23 56 -15 18 -36 18 -551 12 -331 -4 -545 -11 -562 -17 -26 -10
-58 -61 -58 -92 0 -36 -25 -40 -208 -34 -97 3 -285 2 -417 -2 -132 -5 -245 -7
-251 -4 -6 2 -17 22 -24 43 -24 73 -23 72 -267 71 -364 -3 -821 -19 -842 -31
-11 -5 -29 -30 -40 -54 -10 -24 -28 -49 -39 -55 -12 -7 -82 -11 -172 -11
l-151 0 -17 31 c-9 18 -27 43 -39 58 l-21 26 -284 -3 c-448 -5 -683 -16 -702
-31 -9 -8 -19 -31 -22 -52 -4 -21 -13 -44 -21 -51 -19 -15 -197 -26 -483 -28
l-215 -2 -20 28 c-11 15 -32 41 -47 58 l-26 31 -184 -2 c-318 -4 -828 -26
-886 -39 -16 -3 -30 -21 -47 -59 -28 -64 -25 -62 -188 -69 -123 -5 -147 -2
-147 19 0 13 -65 76 -97 93 -12 7 -70 7 -163 2 -80 -5 -239 -11 -355 -15 -115
-4 -220 -11 -233 -16 -13 -5 -31 -23 -40 -40 -43 -80 -41 -79 -212 -86 l-155
-6 -59 57 -60 56 -105 0 c-58 0 -178 -5 -266 -10 -88 -6 -243 -14 -345 -19
-110 -5 -196 -14 -213 -22 -27 -12 -28 -14 -25 -93 2 -66 6 -80 18 -77 44 11
55 6 58 -26 3 -27 -1 -35 -24 -45 l-27 -12 6 -141 c6 -130 12 -194 51 -520 8
-66 30 -259 50 -430 20 -170 41 -344 47 -385 52 -365 52 -348 8 -600 -35 -200
-48 -279 -84 -505 -20 -121 -47 -287 -60 -370 -41 -248 -54 -366 -43 -396 9
-26 59 -55 72 -42 7 8 237 10 242 2 6 -11 -82 -19 -202 -19 -105 0 -115 2
-134 23 -18 19 -21 31 -17 87 4 71 20 189 42 315 8 44 19 118 25 165 6 47 18
107 26 134 8 27 14 65 14 83 0 18 11 90 24 160 14 71 32 182 41 248 10 66 24
140 31 165 18 60 21 247 6 340 -30 184 -34 218 -41 348 -4 76 -11 144 -15 151
-4 6 -12 58 -17 114 -12 131 -33 279 -43 295 -4 6 -9 55 -12 109 -3 54 -10
127 -15 163 -5 36 -13 112 -19 170 -6 58 -15 119 -20 135 -5 17 -12 116 -15
220 -3 105 -8 209 -11 232 l-4 41 83 6 c45 3 147 8 227 11 80 4 174 9 210 11
208 14 486 21 506 14 12 -5 48 -32 80 -61 56 -51 57 -51 108 -45 28 3 77 6
110 6 l58 0 58 62 c40 42 66 62 86 64 62 7 171 13 466 25 l306 13 35 -27 c19
-14 48 -40 65 -57 29 -29 34 -30 117 -30 85 0 131 12 120 31 -4 5 0 9 8 9 7 0
21 16 30 35 15 31 21 35 59 37 24 0 54 2 68 3 38 3 569 25 805 34 116 4 220 4
232 -1 12 -4 38 -25 58 -47 62 -68 88 -72 384 -60 141 5 266 12 279 15 23 5
41 38 46 82 2 13 9 28 16 32 7 4 78 9 157 9 79 1 149 4 156 6 12 4 53 6 452
25 276 13 254 15 303 -29 23 -21 42 -42 42 -48 0 -5 9 -18 20 -28 18 -16 36
-18 126 -16 59 1 117 6 129 11 13 5 36 29 50 54 15 26 31 46 37 46 5 0 7 4 4
8 -3 5 14 10 37 11 23 2 62 5 87 7 25 2 262 6 528 8 l484 5 19 -48 c25 -59 57
-79 124 -75 193 10 546 24 628 24 l97 0 0 50 c0 60 -12 57 210 65 91 3 199 9
240 13 41 3 234 6 428 6 384 -1 372 1 372 -57 0 -17 11 -38 26 -54 25 -25 27
-25 127 -18 164 12 184 13 352 20 88 3 172 11 186 16 14 6 37 28 50 49 17 28
32 41 54 44 17 3 163 10 325 16 388 15 514 21 519 26 10 10 66 3 96 -12z
m3138 -164 c16 -13 29 -35 32 -58 4 -20 13 -53 20 -72 8 -19 22 -61 30 -92 9
-32 20 -58 25 -58 5 0 8 -12 8 -27 0 -16 9 -57 20 -93 18 -54 48 -156 58 -195
1 -5 15 -55 29 -110 15 -55 32 -119 37 -143 6 -26 14 -40 21 -35 6 4 8 1 5 -9
-6 -13 14 -107 26 -127 3 -4 8 -26 10 -47 3 -21 10 -40 15 -42 5 -2 8 -9 5
-17 -3 -7 1 -29 9 -47 8 -18 19 -62 25 -98 6 -36 21 -99 33 -140 37 -130 50
-184 59 -235 13 -74 28 -128 58 -215 3 -8 4 -19 3 -24 -1 -5 1 -16 5 -25 4 -9
6 -26 5 -38 -1 -11 3 -24 9 -28 5 -3 8 -11 5 -16 -4 -5 -1 -9 5 -9 8 0 10 -9
6 -25 -4 -14 -3 -25 2 -25 4 0 8 -8 8 -17 2 -42 16 -121 28 -163 7 -25 23 -97
36 -160 12 -63 24 -122 27 -130 3 -8 7 -24 9 -35 24 -170 73 -406 86 -423 7
-7 11 -44 10 -85 0 -39 7 -112 18 -162 10 -49 21 -115 23 -145 l5 -56 -266 -1
c-147 -1 -296 -2 -331 -2 -35 -1 -62 -4 -59 -7 4 -3 145 -6 315 -6 170 0 316
-4 324 -9 18 -11 49 -10 -349 -12 -382 -2 -352 -8 -351 73 1 25 -8 113 -19
195 -35 252 -35 260 -17 279 15 15 15 16 -1 16 -10 0 -15 3 -11 6 3 3 -1 23
-8 45 -10 26 -11 41 -3 45 7 4 5 9 -3 15 -9 5 -9 9 -3 9 15 0 24 34 13 51 -5
8 -9 10 -9 6 0 -5 -5 -5 -11 -1 -8 4 -7 9 2 14 9 6 9 12 -4 25 -20 20 -20 15
-1 60 11 27 12 41 5 48 -6 6 -11 23 -11 38 l0 28 -117 -4 c-142 -5 -146 -5
-108 -15 27 -7 26 -8 -15 -8 -25 0 -39 2 -32 5 31 12 4 18 -88 17 -103 0 -152
-13 -64 -16 46 -1 45 -2 -16 -7 -64 -6 -65 -7 -66 -36 -1 -16 3 -36 9 -43 8
-10 7 -16 -4 -22 -11 -8 -14 -46 -14 -207 -1 -123 -5 -208 -12 -224 -6 -14
-15 -64 -18 -110 -4 -46 -11 -89 -16 -95 -11 -14 -13 -52 -3 -83 5 -18 4 -22
-5 -16 -10 6 -12 -3 -9 -36 l3 -44 -318 -3 c-348 -3 -345 -3 -317 56 6 15 16
70 21 122 4 52 13 142 19 200 6 58 15 159 20 225 20 256 50 635 59 745 24 281
59 804 86 1295 3 55 12 190 20 300 8 110 15 245 16 300 0 136 11 194 39 217
21 17 52 18 455 18 420 0 433 -1 458 -20z m-2200 -10 c21 -17 26 -31 31 -92 4
-40 13 -143 22 -228 24 -262 64 -747 68 -850 12 -254 33 -527 42 -542 4 -6 6
-35 5 -64 -2 -36 4 -65 18 -95 25 -51 25 -49 5 -49 -13 0 -15 -10 -11 -67 21
-265 27 -376 33 -543 3 -74 7 -162 9 -195 2 -33 4 -91 4 -130 1 -42 5 -65 10
-57 5 9 12 -8 21 -48 13 -62 30 -89 30 -49 0 15 3 20 10 13 13 -13 0 -56 -15
-50 -21 8 -37 -117 -27 -204 5 -41 7 -79 4 -84 -2 -4 -5 -31 -6 -60 l-1 -51
-336 -3 c-261 -2 -339 1 -347 10 -12 15 -19 114 -9 124 13 13 7 160 -7 190
-14 29 -15 50 -32 599 -5 134 -11 213 -18 217 -8 6 -8 8 0 8 7 0 10 18 8 48
-2 26 -6 104 -10 174 -3 75 -11 134 -18 144 -11 14 -37 16 -212 17 -145 0
-198 -3 -196 -11 1 -7 -7 -12 -19 -12 -16 0 -19 -5 -15 -20 3 -11 9 -30 12
-41 4 -15 3 -19 -6 -14 -9 5 -10 1 -5 -15 4 -12 8 -45 10 -73 10 -171 10 -192
-4 -203 -11 -9 -11 -14 0 -34 11 -17 11 -24 2 -27 -8 -3 -5 -11 8 -24 14 -14
17 -24 10 -37 -6 -10 -6 -23 1 -36 6 -11 13 -111 15 -225 3 -113 9 -208 14
-211 12 -8 24 -195 13 -217 -5 -10 -9 -81 -9 -158 0 -133 -1 -140 -20 -140
-11 -1 -26 -4 -33 -9 -8 -5 -19 -1 -28 10 -10 14 -14 15 -12 4 3 -12 -17 -16
-107 -21 -171 -10 -366 -9 -410 1 -24 5 -44 5 -51 -1 -27 -22 -52 55 -37 112
5 19 6 80 1 139 -4 58 -9 168 -12 245 -16 489 -23 587 -39 597 -9 6 -9 8 1 8
10 0 12 36 7 173 -2 94 -7 260 -10 367 -12 414 -71 1571 -85 1672 -13 87 -13
85 10 108 19 19 33 20 335 20 297 0 315 -1 324 -19 6 -10 13 -63 16 -117 3
-55 10 -146 15 -204 22 -241 30 -377 35 -595 3 -126 8 -267 11 -312 l6 -83 77
-1 c227 -2 355 1 363 9 5 5 4 51 -2 108 -5 54 -15 164 -21 244 -6 80 -15 192
-20 250 -4 58 -13 159 -18 225 -13 148 -29 309 -41 395 -8 52 -6 69 6 87 l14
23 299 0 c283 0 300 -1 324 -20z m-2862 -10 c43 -12 56 -35 64 -115 6 -61 42
-305 70 -470 8 -49 24 -146 34 -215 11 -69 27 -170 35 -225 30 -190 61 -426
81 -620 8 -77 19 -151 25 -165 14 -38 30 -138 30 -192 0 -26 4 -48 9 -48 5 0
9 -10 9 -22 0 -13 5 -61 12 -108 7 -47 12 -116 11 -154 -1 -38 3 -74 9 -81 5
-6 13 -56 16 -111 4 -54 10 -107 15 -116 5 -9 9 -27 8 -40 -2 -54 23 -267 36
-308 8 -25 15 -61 16 -80 2 -19 7 -41 13 -48 13 -19 17 -131 5 -155 -7 -12 -7
-17 -1 -13 11 7 19 -39 18 -104 l-1 -45 -105 -6 c-172 -10 -570 -3 -583 10
-11 11 -15 44 -17 131 0 25 -6 72 -12 105 -6 33 -10 74 -9 90 0 17 -4 64 -9
105 -5 41 -17 138 -26 215 -8 77 -18 163 -22 190 l-7 50 -195 3 c-240 4 -276
0 -284 -33 -3 -13 -2 -34 3 -47 5 -14 5 -46 0 -78 -5 -30 -14 -104 -19 -165
-6 -60 -14 -132 -20 -160 -5 -27 -17 -112 -26 -188 -9 -75 -20 -140 -25 -143
-5 -3 -9 -18 -9 -34 0 -20 -7 -33 -22 -41 -28 -15 -602 -19 -617 -4 -6 6 -4
37 4 85 11 61 32 207 60 415 51 386 68 493 234 1475 145 862 160 945 187 1068
15 64 37 165 49 224 18 88 38 142 58 160 1 1 180 5 397 8 217 3 411 7 430 8
19 1 51 -3 71 -8z m-2125 -53 l27 -23 -11 -95 c-15 -130 -23 -268 -42 -754 -6
-143 -13 -314 -16 -380 -5 -114 -9 -277 -18 -800 -2 -141 0 -237 6 -249 7 -13
6 -21 -3 -27 -14 -8 -14 -13 -19 -399 -1 -69 1 -134 5 -145 6 -16 5 -17 -4 -5
-8 11 -10 -5 -9 -65 l1 -80 7 60 c4 43 7 20 8 -84 0 -80 -2 -150 -6 -155 -4
-6 -8 -46 -8 -89 -1 -43 -5 -81 -9 -85 -9 -9 -495 -19 -600 -12 l-79 5 -1 295
c0 162 3 369 7 460 5 91 12 316 18 500 5 184 12 410 16 503 l6 167 -25 0 c-24
0 -25 3 -20 35 7 45 -13 47 -22 3 -4 -18 -25 -86 -46 -150 -21 -65 -39 -123
-39 -130 0 -7 -12 -38 -26 -68 -49 -103 -48 -100 -36 -112 7 -7 12 -28 13 -47
0 -36 0 -36 15 13 9 26 17 46 20 43 5 -5 -43 -195 -54 -212 -4 -5 -5 -18 -3
-29 1 -10 -1 -16 -6 -13 -4 3 -8 -14 -9 -36 0 -23 -10 -83 -22 -132 -12 -50
-31 -142 -42 -205 -12 -63 -27 -131 -34 -150 -7 -19 -19 -73 -25 -120 -7 -47
-24 -132 -38 -190 -15 -58 -26 -112 -26 -120 1 -27 -48 -225 -58 -235 -5 -5
-9 -19 -9 -31 0 -26 -22 -37 -39 -21 -10 9 -12 9 -9 -3 2 -13 -20 -16 -136
-22 -130 -6 -184 0 -187 19 -6 35 -9 53 -13 88 -2 22 -18 121 -34 220 -17 99
-40 254 -52 345 -82 619 -162 1135 -183 1180 -7 14 -23 26 -36 28 -22 4 -23 1
-18 -31 3 -19 3 -38 -1 -41 -3 -4 -5 -31 -3 -60 1 -30 -2 -57 -7 -60 -5 -3 -8
-42 -7 -88 2 -45 0 -77 -3 -71 -4 6 -7 -30 -6 -80 1 -51 -3 -146 -8 -212 -4
-66 -11 -311 -13 -545 -5 -400 -17 -645 -34 -663 -6 -6 -296 -21 -351 -18 -91
5 -165 1 -163 -8 4 -16 -33 -13 -47 3 -7 10 -10 33 -6 68 4 29 11 188 17 353
16 481 31 775 54 1055 8 96 17 225 20 285 3 61 14 220 25 355 10 135 21 290
25 345 9 149 32 351 71 620 19 132 34 243 34 247 0 4 13 14 28 22 22 11 107
17 381 24 353 10 413 6 424 -23 7 -17 33 -163 88 -500 22 -137 58 -340 80
-449 21 -110 39 -207 39 -217 0 -41 23 -122 30 -108 10 17 69 232 86 314 7 33
24 103 38 155 26 94 56 221 60 250 1 8 5 22 8 30 7 18 25 84 43 160 7 30 20
75 28 100 8 25 29 92 48 150 35 114 45 136 69 147 17 9 304 18 627 21 219 2
222 2 249 -21z m-3378 -65 c15 -11 23 -28 23 -43 -1 -13 -4 -292 -7 -619 -5
-516 5 -1235 21 -1455 24 -333 25 -384 7 -387 -14 -3 -14 -5 -1 -18 11 -12 15
-56 16 -200 3 -238 13 -373 39 -522 7 -44 -6 -71 -37 -74 -13 -1 -122 -3 -241
-4 -160 -1 -218 -5 -219 -13 0 -9 -2 -8 -6 1 -3 8 -24 12 -61 11 -47 -1 -52
-3 -27 -9 27 -7 25 -8 -17 -9 -65 -1 -75 17 -82 144 -4 55 -8 127 -10 160 -3
33 -10 141 -16 240 -8 110 -17 183 -24 188 -8 6 -8 10 2 14 23 9 9 148 -14
139 -8 -3 -89 -6 -182 -6 -182 -1 -233 -6 -230 -24 5 -29 -68 -403 -107 -546
-26 -97 -53 -207 -61 -248 -7 -36 -47 -44 -239 -48 -99 -3 -217 -6 -262 -7
-100 -4 -100 -4 -78 120 30 159 65 337 76 377 6 22 12 55 14 75 2 20 13 74 25
121 12 47 26 103 30 126 8 38 120 478 154 604 107 402 330 1137 419 1385 69
192 177 460 195 485 10 13 34 28 52 33 32 8 423 22 695 25 111 1 133 -1 153
-16z m-1663 -29 c4 -10 7 -31 6 -46 -3 -28 -16 -52 -122 -222 -27 -44 -69
-118 -93 -165 -24 -47 -65 -121 -90 -164 -26 -44 -83 -154 -127 -245 -45 -91
-112 -229 -150 -306 -38 -77 -69 -143 -69 -147 0 -4 -18 -45 -41 -90 -68 -139
-210 -490 -205 -505 3 -7 -1 -50 -9 -94 -7 -44 -11 -87 -8 -95 3 -8 1 -14 -4
-14 -6 0 -10 -12 -10 -27 0 -16 -3 -53 -7 -83 -3 -30 -9 -75 -11 -100 -3 -25
-9 -79 -14 -120 -4 -41 -6 -78 -4 -83 2 -4 -1 -23 -7 -41 -6 -19 -13 -74 -15
-123 -4 -90 -12 -184 -21 -238 -2 -16 -4 -73 -4 -125 0 -52 -5 -134 -12 -182
l-12 -87 -62 -10 c-34 -6 -170 -11 -303 -10 -132 0 -244 -2 -249 -5 -19 -12
-32 23 -33 85 0 55 6 143 37 489 9 104 63 520 89 696 l25 162 -21 123 c-11 68
-22 140 -23 159 -2 19 -16 118 -30 220 -50 358 -75 546 -86 655 -7 61 -18 121
-25 135 -8 16 -10 31 -5 41 5 8 5 57 0 110 -16 157 -13 336 6 364 20 30 37 33
209 40 77 3 183 8 236 11 88 5 99 4 117 -14 22 -22 25 -55 47 -517 7 -146 34
-435 41 -447 11 -17 37 17 69 87 69 151 265 543 302 605 57 96 75 138 60 144
-7 2 -5 5 5 5 10 1 37 31 62 71 25 39 56 74 68 79 28 10 172 20 336 23 68 2
126 6 128 10 8 13 21 9 29 -9z m-162 -3369 l32 -27 292 5 c265 5 348 0 245
-16 -42 -6 -537 -11 -567 -5 -24 5 -44 28 -45 52 0 23 7 22 43 -9z m-1160 -28
c273 1 327 -1 312 -12 -13 -10 -90 -13 -326 -14 -314 0 -349 3 -349 37 0 13 2
14 17 2 13 -11 80 -14 346 -13z m1025 -18 c4 -21 -14 -32 -36 -22 -9 4 -131 6
-269 5 -224 -3 -253 -1 -253 13 0 19 58 22 350 21 178 -1 205 -4 208 -17z
m3202 -114 c550 -3 625 -5 455 -13 -66 -3 -147 -3 -180 0 -33 3 -64 4 -70 1
-19 -11 -785 -7 -785 4 0 21 15 26 55 18 22 -4 258 -8 525 -10z m-1010 -14 c0
-14 -902 -32 -915 -18 -4 4 -5 10 -2 15 6 10 917 13 917 3z m-1407 -7 c83 -15
-30 -23 -413 -29 -394 -7 -424 -6 -411 9 12 15 51 17 335 19 176 2 353 4 391
5 39 1 83 -1 98 -4z m-1427 -13 c33 0 30 -17 -3 -24 -23 -5 -906 -11 -981 -7
-14 1 -22 6 -20 14 4 9 112 13 479 17 261 3 480 4 487 3 8 -2 25 -3 38 -3z"/>
<path d="M13823 3074 c-1 -19 -7 -110 -13 -202 -9 -137 -27 -572 -33 -786 -1
-32 3 -51 11 -54 6 -2 12 -8 12 -14 0 -6 -7 -7 -16 -4 -13 5 -15 1 -12 -19 4
-17 1 -25 -9 -25 -9 0 -2 -10 15 -25 29 -24 35 -25 175 -25 80 0 148 4 151 8
5 9 3 22 -75 377 -61 280 -103 463 -131 572 -19 76 -22 81 -40 72 -11 -6 -22
-8 -25 -5 -8 8 7 26 23 26 8 0 14 9 14 21 0 11 -4 18 -9 14 -6 -3 -15 5 -22
17 -11 22 -11 22 6 8 16 -14 17 -13 12 5 -3 11 -9 32 -13 48 -9 38 -19 34 -21
-9z"/>
<path d="M8656 2877 c-5 -32 -3 -53 4 -57 7 -4 5 -19 -7 -46 -9 -21 -18 -48
-19 -59 -2 -11 -10 -49 -18 -85 -9 -36 -13 -73 -10 -82 3 -10 1 -18 -4 -18 -6
0 -10 -15 -10 -32 0 -18 -16 -122 -35 -231 -20 -108 -34 -204 -31 -212 4 -11
2 -13 -9 -10 -10 4 -17 -2 -21 -19 -3 -14 -11 -26 -17 -26 -6 0 -8 -9 -4 -22
3 -13 3 -18 -2 -12 -10 14 -45 14 -40 0 2 -6 12 -13 23 -15 10 -2 30 -12 43
-22 21 -17 42 -19 184 -19 l160 0 -7 68 c-8 80 -47 373 -90 677 -24 168 -35
220 -45 220 -21 0 -26 24 -7 31 24 9 19 22 -8 22 -21 0 -25 -6 -30 -51z"/>
<path d="M3000 2743 c-7 -21 -19 -48 -27 -59 -7 -12 -15 -30 -17 -40 -2 -11
-14 -50 -26 -89 -12 -38 -41 -131 -65 -205 -23 -74 -60 -193 -83 -265 -23 -71
-44 -145 -48 -162 -4 -18 -13 -38 -21 -44 -12 -10 -9 -15 19 -26 26 -11 64
-13 176 -7 l142 7 1 31 c1 17 1 217 0 445 -2 386 -3 414 -21 433 -18 19 -18
19 -30 -19z"/>
<path d="M15420 4040 c0 -57 28 -864 33 -950 2 -30 4 182 5 473 2 521 2 527
-18 527 -17 0 -20 -7 -20 -50z"/>
</g>
</svg>
